# xmcd
#
# Track frame offsets:
#       150
#       11918
#       23041
#       35784
#       51628
#       61015
#       75130
#       85502
#       99262
#       111009
#       124196
#       134679
#       147267
#       160849
#       173261
#       186817
#       197734
#       212942
#       223704
#       238382
#
# Disc length: 3403 seconds
#
# Revision: 0
# Processed by: cddbd v1.5.2PL0 Copyright (c) Steve Scherf et al.
# Submitted via: WaveLab 6.11
#
DISCID=160d4914
DTITLE=Ralf Bendix - Große Erfolge and Evergreens
DYEAR=2014
DGENRE=
TTITLE0=In Hamburg sind die Nächte lang
TTITLE1=Kuckucks Walzer
TTITLE2=Bei dir war es immer so schön
TTITLE3=Einsamer Sonntag
TTITLE4=Kannst du pfeifen, Johanna?
TTITLE5=Du, du ,du
TTITLE6=Armer Gigolo
TTITLE7=Viljalied
TTITLE8=Ich küsse ihre Hand, Madame
TTITLE9=Warum müssen Jahre vergeh'n?
TTITLE10=Bei mir bist du schön
TTITLE11=Auf Wiedersehn
TTITLE12=Bambina
TTITLE13=Wo meine Sonne scheint
TTITLE14=Buona sera
TTITLE15=Hotel zur Einsamkeit
TTITLE16=Venus-Walzer
TTITLE17=Tschau, tschau, Bambina
TTITLE18=Es war im Anfang
TTITLE19=Kriminal-Tango
EXTD=
EXTT0=
EXTT1=
EXTT2=
EXTT3=
EXTT4=
EXTT5=
EXTT6=
EXTT7=
EXTT8=
EXTT9=
EXTT10=
EXTT11=
EXTT12=
EXTT13=
EXTT14=
EXTT15=
EXTT16=
EXTT17=
EXTT18=
EXTT19=
PLAYORDER=
